<?xml version="1.0" encoding="utf-8"?>
<!-- Generator: Adobe Illustrator 18.1.1, SVG Export Plug-In . SVG Version: 6.00 Build 0)  -->
<!DOCTYPE svg PUBLIC "-//W3C//DTD SVG 1.1//EN" "http://www.w3.org/Graphics/SVG/1.1/DTD/svg11.dtd">
<svg version="1.1" id="Layer_1" xmlns="http://www.w3.org/2000/svg" xmlns:xlink="http://www.w3.org/1999/xlink" x="0px" y="0px"
	 viewBox="0 0 40 40" enable-background="new 0 0 40 40" xml:space="preserve">
<g>
	<path d="M38.3,20c0,0.7-0.6,1.3-1.3,1.3l-30,0c2.7,1.9,6.2,4.4,8.2,5.8c0.6,0.4,0.7,1.2,0.3,1.8c-0.2,0.3-0.6,0.5-1,0.5
		c-0.3,0-0.5-0.1-0.7-0.2c-4.1-2.9-10.7-7.6-11.4-8c0,0,0,0,0,0c0,0,0,0,0,0C2.2,21,2.1,21,2.1,20.9c0,0-0.1-0.1-0.1-0.1
		c0,0-0.1-0.1-0.1-0.1c-0.1-0.1-0.1-0.2-0.1-0.3c-0.1-0.4,0-0.9,0.3-1.2C2.1,19,2.2,19,2.3,18.9c3.4-2.4,11-7.8,11.7-8.2
		c0.6-0.3,1.4-0.1,1.7,0.6c0.3,0.6,0.1,1.4-0.5,1.7c-0.5,0.3-4.5,3.1-8.2,5.7l30.1,0C37.7,18.7,38.3,19.3,38.3,20z"/>
</g>
</svg>
