<?xml version="1.0" encoding="utf-8"?>
<!-- Generator: Adobe Illustrator 19.0.0, SVG Export Plug-In . SVG Version: 6.00 Build 0)  -->
<!DOCTYPE svg PUBLIC "-//W3C//DTD SVG 1.1//EN" "http://www.w3.org/Graphics/SVG/1.1/DTD/svg11.dtd">
<svg version="1.1" id="Layer_1" xmlns="http://www.w3.org/2000/svg" xmlns:xlink="http://www.w3.org/1999/xlink" x="0px" y="0px"
	 viewBox="0 0 50 50" enable-background="new 0 0 50 50" xml:space="preserve">
<g id="XMLID_6_">
	<g id="XMLID_15_">
		<path id="XMLID_41_" fill="#FFFFFF" d="M40.7,7.1c0-1.5-1.2-2.7-2.7-2.7H17.7c-1.5,0-2.7,1.2-2.7,2.7v29.6c0,1.5,1.2,2.7,2.7,2.7
			H38c1.5,0,2.7-1.2,2.7-2.7V7.1z"/>
		<path id="XMLID_40_" fill="none" stroke="#000000" stroke-width="2" stroke-miterlimit="10" d="M40.7,7.1c0-1.5-1.2-2.7-2.7-2.7
			H17.7c-1.5,0-2.7,1.2-2.7,2.7v29.6c0,1.5,1.2,2.7,2.7,2.7H38c1.5,0,2.7-1.2,2.7-2.7V7.1z"/>
	</g>
	<g id="XMLID_1_">
		<path id="XMLID_32_" fill="#FFFFFF" d="M35,13.4c0-1.5-1.2-2.7-2.7-2.7H12c-1.5,0-2.7,1.2-2.7,2.7v29.6c0,1.5,1.2,2.7,2.7,2.7
			h20.3c1.5,0,2.7-1.2,2.7-2.7V13.4z"/>
		<path id="XMLID_31_" fill="none" stroke="#000000" stroke-width="2" stroke-miterlimit="10" d="M35,13.4c0-1.5-1.2-2.7-2.7-2.7H12
			c-1.5,0-2.7,1.2-2.7,2.7v29.6c0,1.5,1.2,2.7,2.7,2.7h20.3c1.5,0,2.7-1.2,2.7-2.7V13.4z"/>
	</g>
	<g id="XMLID_24_">
		<path id="XMLID_42_" d="M30.2,17.5c-0.3,0-0.7-0.1-0.9-0.3c-0.6-0.5-0.6-1.4-0.1-2l3.8-4.3c-0.6,0-1.1-0.4-1.3-1
			c-0.1-0.4-0.1-0.7,0.1-1.1c0.2-0.3,0.5-0.6,0.8-0.7l4.3-1.4l0,0c0.1,0,0.2,0,0.3,0l0.1,0c0.2,0,0.3,0.1,0.5,0.1l0.1,0L38,7
			c0.1,0,0.2,0.1,0.3,0.2l0.1,0.1c0.1,0.1,0.1,0.2,0.2,0.3l0,0.1l0,0l0,0.1l0,0.1c0,0,0,0.1,0,0.3c0,0.1,0,0.1,0,0.2l-0.7,4.4
			c-0.1,0.7-0.7,1.2-1.4,1.2l0,0c-0.1,0-0.2,0-0.2,0c-0.6-0.1-1.1-0.6-1.2-1.2l-3.8,4.4C31,17.3,30.7,17.5,30.2,17.5L30.2,17.5z"/>
		<path id="XMLID_36_" fill="#FFFFFF" d="M37.3,7.2C37.3,7.2,37.3,7.2,37.3,7.2c0.1,0,0.2,0,0.3,0.1c0,0,0,0,0,0c0,0,0,0,0.1,0.1
			c0.1,0,0.1,0.1,0.2,0.1c0,0,0,0.1,0.1,0.1c0,0.1,0.1,0.1,0.1,0.2c0,0,0,0,0,0.1c0,0,0,0,0,0.1c0,0.1,0,0.1,0,0.2c0,0,0,0.1,0,0.1
			c0,0,0,0,0,0l-0.7,4.3c-0.1,0.4-0.5,0.8-0.9,0.8c0,0-0.1,0-0.1,0c-0.5-0.1-0.8-0.5-0.7-1l0.2-1.2l-4.9,5.6
			c-0.2,0.2-0.4,0.3-0.7,0.3c0,0,0,0,0,0c-0.2,0-0.4-0.1-0.6-0.2c-0.4-0.3-0.4-0.9-0.1-1.3l4.8-5.6l-1.2,0.4c-0.1,0-0.2,0-0.3,0
			c0,0,0,0,0,0c-0.4,0-0.7-0.2-0.9-0.6c-0.2-0.5,0.1-1,0.6-1.1l4.3-1.4c0,0,0,0,0,0C37.1,7.2,37.1,7.2,37.3,7.2
			C37.2,7.2,37.2,7.2,37.3,7.2C37.2,7.2,37.3,7.2,37.3,7.2C37.3,7.2,37.3,7.2,37.3,7.2 M37.3,6.2L37.3,6.2L37.3,6.2
			c-0.2,0-0.3,0-0.4,0l-0.1,0l-0.2,0l-4.3,1.4c-0.5,0.2-0.9,0.5-1.1,0.9c-0.2,0.5-0.3,1-0.1,1.5c0.2,0.5,0.5,0.9,0.9,1.1l-3.2,3.7
			c-0.7,0.8-0.6,2,0.2,2.7c0.3,0.3,0.8,0.5,1.3,0.5h0l0,0c0.5,0,1-0.3,1.4-0.7l3.3-3.8c0.3,0.4,0.7,0.7,1.2,0.7c0.1,0,0.2,0,0.3,0
			c0.9,0,1.7-0.7,1.9-1.6l0.7-4.3l0-0.1l0-0.1c0,0,0-0.1,0-0.1c0-0.1,0-0.3,0-0.4c0-0.1,0-0.1,0-0.2l0-0.1l-0.1-0.1
			c0-0.1-0.1-0.2-0.2-0.3c0-0.1-0.1-0.1-0.1-0.2c-0.1-0.1-0.3-0.2-0.3-0.3c0,0,0,0-0.1,0l0,0L38,6.4c-0.2-0.1-0.4-0.2-0.6-0.2
			L37.3,6.2L37.3,6.2L37.3,6.2z"/>
	</g>
</g>
</svg>
