<?xml version="1.0" encoding="utf-8"?>
<!-- Generator: Adobe Illustrator 19.0.0, SVG Export Plug-In . SVG Version: 6.00 Build 0)  -->
<!DOCTYPE svg PUBLIC "-//W3C//DTD SVG 1.1//EN" "http://www.w3.org/Graphics/SVG/1.1/DTD/svg11.dtd">
<svg version="1.1" id="Layer_1" xmlns="http://www.w3.org/2000/svg" xmlns:xlink="http://www.w3.org/1999/xlink" x="0px" y="0px"
	 viewBox="0 0 50 50" enable-background="new 0 0 50 50" xml:space="preserve">
<g id="XMLID_1_">
	<path id="XMLID_26_" fill="#FFFFFF" d="M33.5,45.2H16.9c-2.5,0-4.5-1.9-4.5-4.2V15.8c0-0.4,0.4-0.8,0.8-0.8h23.7
		c0.4,0,0.8,0.4,0.8,0.8L38,40.9C38,43.2,36,45.2,33.5,45.2z"/>
	<path id="XMLID_25_" fill="none" stroke="#000000" stroke-width="3" stroke-miterlimit="10" d="M33.5,45.2H16.9
		c-2.5,0-4.5-1.9-4.5-4.2V15.8c0-0.4,0.4-0.8,0.8-0.8h23.7c0.4,0,0.8,0.4,0.8,0.8L38,40.9C38,43.2,36,45.2,33.5,45.2z"/>
</g>
<g id="XMLID_2_">
	<path id="XMLID_23_" fill="#FFFFFF" d="M39.5,12.9c0,0.6-0.5,1.1-1.1,1.1l-26.9-0.2c-0.6,0-1.1-0.5-1.1-1.1v-2
		c0-0.6,0.5-1.1,1.1-1.1l4.8-0.1c0.6,0,1.4-0.4,1.8-0.9l2.4-3c0.4-0.5,1.2-0.8,1.8-0.8h6c0.6,0,1.4,0.4,1.8,0.8l2.5,3
		c0.4,0.4,1.2,0.8,1.8,0.8l4.1,0.1c0.6,0,1.1,0.5,1.1,1.1V12.9z"/>
	<path id="XMLID_22_" fill="none" stroke="#000000" stroke-width="3" stroke-miterlimit="10" d="M39.5,12.9c0,0.6-0.5,1.1-1.1,1.1
		l-26.9-0.2c-0.6,0-1.1-0.5-1.1-1.1v-2c0-0.6,0.5-1.1,1.1-1.1l4.8-0.1c0.6,0,1.4-0.4,1.8-0.9l2.4-3c0.4-0.5,1.2-0.8,1.8-0.8h6
		c0.6,0,1.4,0.4,1.8,0.8l2.5,3c0.4,0.4,1.2,0.8,1.8,0.8l4.1,0.1c0.6,0,1.1,0.5,1.1,1.1V12.9z"/>
</g>
<g id="XMLID_3_">
	<path id="XMLID_28_" d="M22.9,9c-0.3,0.4-0.1,0.7,0.4,0.7h4.3C28,9.7,28.2,9.4,28,9l0-0.1c-0.3-0.4-0.9-0.7-1.3-0.7h-2.3
		C23.8,8.2,23.2,8.5,22.9,9L22.9,9z"/>
</g>
<line id="XMLID_5_" fill="#FFFFFF" stroke="#000000" stroke-linecap="round" stroke-miterlimit="10" x1="16.9" y1="20.7" x2="16.9" y2="39.8"/>
<line id="XMLID_6_" fill="#FFFFFF" stroke="#000000" stroke-linecap="round" stroke-miterlimit="10" x1="25.5" y1="20.7" x2="25.5" y2="39.8"/>
<line id="XMLID_7_" fill="#FFFFFF" stroke="#000000" stroke-linecap="round" stroke-miterlimit="10" x1="34.2" y1="20.7" x2="34.2" y2="39.8"/>
<line id="XMLID_8_" fill="#FFFFFF" stroke="#000000" stroke-linecap="round" stroke-miterlimit="10" x1="29.8" y1="20.7" x2="29.8" y2="39.8"/>
<line id="XMLID_9_" fill="#FFFFFF" stroke="#000000" stroke-linecap="round" stroke-miterlimit="10" x1="21.2" y1="20.7" x2="21.2" y2="39.8"/>
<polygon id="XMLID_4_" points="12.8,14.3 37.9,14.1 37.3,17.3 12.8,17.3 "/>
</svg>
