<?xml version="1.0" encoding="utf-8"?>
<!-- Generator: Adobe Illustrator 18.1.1, SVG Export Plug-In . SVG Version: 6.00 Build 0)  -->
<!DOCTYPE svg PUBLIC "-//W3C//DTD SVG 1.1//EN" "http://www.w3.org/Graphics/SVG/1.1/DTD/svg11.dtd">
<svg version="1.1" id="Layer_1" xmlns="http://www.w3.org/2000/svg" xmlns:xlink="http://www.w3.org/1999/xlink" x="0px" y="0px"
	 viewBox="0 0 40 40" enable-background="new 0 0 40 40" xml:space="preserve">
<path d="M39,4.9l-3.7-3.7c-0.4-0.4-1.1-0.4-1.5,0L3,32c-0.1,0.1-0.2,0.2-0.2,0.4l-1.9,5.5c-0.1,0.4,0,0.8,0.2,1.1
	c0.2,0.2,0.5,0.3,0.8,0.3c0.1,0,0.2,0,0.3,0l5.6-1.8c0.2,0,0.3-0.1,0.4-0.3l25-25l0.4-0.4L39,6.4C39.4,6,39.4,5.3,39,4.9z M6.9,35.5
	l-0.3,0.1l-2-2l0.1-0.2L29,9l2.2,2.2L6.9,35.5z M32.6,9.8l-2.2-2.2l1.2-1.2l2.2,2.2L32.6,9.8z"/>
</svg>
