<?xml version="1.0" encoding="utf-8"?>
<!-- Generator: Adobe Illustrator 18.1.1, SVG Export Plug-In . SVG Version: 6.00 Build 0)  -->
<!DOCTYPE svg PUBLIC "-//W3C//DTD SVG 1.1//EN" "http://www.w3.org/Graphics/SVG/1.1/DTD/svg11.dtd">
<svg version="1.1" id="Layer_1" xmlns="http://www.w3.org/2000/svg" xmlns:xlink="http://www.w3.org/1999/xlink" x="0px" y="0px"
	 viewBox="0 0 40 40" enable-background="new 0 0 40 40" xml:space="preserve">
<path d="M20,6.7c0.2,0,0.3,0,0.5,0c3.8,0.2,7,3.4,7.1,7.3c0.1,2.1-0.7,4.1-2.2,5.6c-0.6,0.6-0.9,1.4-0.8,2.2
	c0.1,0.8,0.5,1.6,1.1,2.1c2.7,2.1,4.4,5.5,4.4,9.1v0.2H9.9v-0.2c0-3.6,1.6-7,4.4-9.1c0.7-0.5,1.1-1.3,1.1-2.1
	c0.1-0.8-0.2-1.6-0.8-2.2c-1.4-1.4-2.2-3.3-2.2-5.3C12.4,10.1,15.8,6.7,20,6.7 M20,4.7c-5.3,0-9.6,4.3-9.6,9.6c0,2.6,1.1,5,2.8,6.7
	c0.4,0.4,0.3,1-0.1,1.3c-3.1,2.4-5.2,6.3-5.2,10.7v2.2h24.2v-2.2c0-4.4-2-8.3-5.2-10.7c-0.4-0.3-0.5-0.9-0.1-1.3
	c1.8-1.8,2.9-4.3,2.8-7.1c-0.2-4.9-4.1-8.9-9-9.2C20.4,4.7,20.2,4.7,20,4.7L20,4.7z"/>
</svg>
