<?xml version="1.0" encoding="utf-8"?>
<!-- Generator: Adobe Illustrator 18.1.1, SVG Export Plug-In . SVG Version: 6.00 Build 0)  -->
<!DOCTYPE svg PUBLIC "-//W3C//DTD SVG 1.1//EN" "http://www.w3.org/Graphics/SVG/1.1/DTD/svg11.dtd">
<svg version="1.1" id="Layer_1" xmlns="http://www.w3.org/2000/svg" xmlns:xlink="http://www.w3.org/1999/xlink" x="0px" y="0px"
	 viewBox="0 0 40 40" enable-background="new 0 0 40 40" xml:space="preserve">
<path d="M19.1,6.5c4.6,0,8.7,1.3,11.6,3.6c3,2.4,4.6,5.8,4.6,10c0,1.6-0.2,3.1-0.7,4.5c-0.4,1.1-0.3,2.3,0.1,3.3l1.6,3.7l-4.3-0.6
	c-0.3,0-0.6-0.1-0.9-0.1c-1,0-2,0.2-2.9,0.7c-2.6,1.2-5.7,1.9-9,1.9c-7.5,0-16.2-3.5-16.2-13.4c0-4.1,1.6-7.6,4.6-10
	C10.3,7.8,14.5,6.5,19.1,6.5 M19.1,4.5C9,4.5,0.9,10.1,0.9,20.1S9,35.5,19.1,35.5c3.7,0,7.1-0.7,9.9-2.1c0.6-0.3,1.3-0.5,2-0.5
	c0.2,0,0.4,0,0.6,0l6.9,1c0,0,0.1,0,0.1,0c0.4,0,0.7-0.4,0.5-0.8l-2.6-6c-0.3-0.6-0.3-1.3-0.1-1.9c0.5-1.5,0.8-3.3,0.8-5.1
	C37.3,10.1,29.1,4.5,19.1,4.5L19.1,4.5z"/>
</svg>
