<?xml version="1.0" encoding="utf-8"?>
<!-- Generator: Adobe Illustrator 19.0.0, SVG Export Plug-In . SVG Version: 6.00 Build 0)  -->
<!DOCTYPE svg PUBLIC "-//W3C//DTD SVG 1.1//EN" "http://www.w3.org/Graphics/SVG/1.1/DTD/svg11.dtd">
<svg version="1.1" id="Layer_1" xmlns="http://www.w3.org/2000/svg" xmlns:xlink="http://www.w3.org/1999/xlink" x="0px" y="0px"
	 viewBox="0 0 40 40" enable-background="new 0 0 40 40" xml:space="preserve">
<path id="XMLID_1_" fill="#010101" d="M38.9,8.3c-1.4,0.6-2.9,1-4.4,1.2c1.6-1,2.8-2.5,3.4-4.3c-1.5,0.9-3.2,1.5-4.9,1.9
	c-1.4-1.5-3.4-2.4-5.7-2.4c-4.3,0-7.7,3.5-7.7,7.7c0,0.6,0.1,1.2,0.2,1.8c-6.4-0.3-12.1-3.4-16-8.1c-0.7,1.1-1,2.5-1,3.9
	c0,2.7,1.4,5.1,3.4,6.4c-1.3,0-2.5-0.4-3.5-1c0,0,0,0.1,0,0.1c0,3.8,2.7,6.9,6.2,7.6c-0.6,0.2-1.3,0.3-2,0.3c-0.5,0-1,0-1.5-0.1
	c1,3.1,3.8,5.3,7.2,5.4C9.9,30.7,6.6,32,3,32c-0.6,0-1.2,0-1.8-0.1c3.4,2.2,7.5,3.5,11.9,3.5c14.2,0,22-11.8,22-22c0-0.3,0-0.7,0-1
	C36.5,11.2,37.8,9.8,38.9,8.3z"/>
</svg>
